<svg xmlns="http://www.w3.org/2000/svg" xmlns:xlink="http://www.w3.org/1999/xlink" width="500" zoomAndPan="magnify" viewBox="0 0 375 374.999991" height="500" preserveAspectRatio="xMidYMid meet" version="1.0"><defs><clipPath id="id1"><path d="M 106 116.445312 L 270.453125 116.445312 L 270.453125 258 L 106 258 Z M 106 116.445312 " clip-rule="nonzero"/></clipPath><clipPath id="id2"><path d="M 106 116.445312 L 270.453125 116.445312 L 270.453125 258 L 106 258 Z M 106 116.445312 " clip-rule="nonzero"/></clipPath><clipPath id="id3"><path d="M 78.351562 88.015625 L 296.601562 88.015625 L 296.601562 306.265625 L 78.351562 306.265625 Z M 78.351562 88.015625 " clip-rule="nonzero"/></clipPath></defs><rect x="-37.5" width="450" fill="#ffffff" y="-37.499999" height="449.999989" fill-opacity="1"/><rect x="-37.5" width="450" fill="#ffffff" y="-37.499999" height="449.999989" fill-opacity="1"/><rect x="-37.5" width="450" fill="#ffbd59" y="-37.499999" height="449.999989" fill-opacity="1"/><g clip-path="url(#id1)"><path fill="#fe7eb1" d="M 269.78125 240.589844 C 268.371094 252.242188 260.523438 258.183594 249.730469 257.421875 C 245.417969 257.117188 240.964844 255.601562 236.761719 253.144531 C 236.691406 253.109375 236.621094 253.078125 236.550781 253.042969 C 227.046875 248.46875 220.027344 239.984375 215.457031 230.671875 C 213.199219 226.070312 211.5 221.195312 210.398438 216.191406 C 209.324219 211.304688 208.980469 206.410156 208.957031 201.417969 C 208.929688 196.003906 209.085938 190.585938 209.390625 185.179688 C 206.648438 194.265625 203.308594 203.117188 199.261719 210.824219 C 196.046875 216.953125 191.753906 223.328125 185.390625 224.800781 C 181.582031 225.683594 177.917969 224.65625 174.597656 222.523438 C 173.484375 222.054688 172.410156 221.46875 171.40625 220.789062 C 164.253906 215.964844 159.898438 207.765625 156.863281 199.9375 C 155.214844 195.679688 153.976562 191.28125 153.109375 186.808594 C 152.449219 191.796875 151.742188 196.324219 150.941406 199.859375 C 149.46875 206.382812 147.722656 213.273438 144.46875 219.714844 C 141.082031 226.421875 135.890625 232.558594 129.734375 234.941406 C 125.09375 236.742188 120.34375 236.136719 116.679688 233.597656 C 116.527344 233.539062 116.371094 233.484375 116.21875 233.417969 C 112.136719 231.660156 109.355469 228.003906 107.914062 223.898438 C 104.71875 214.808594 107.660156 205.058594 112.226562 197.003906 C 116.941406 188.683594 123.347656 181.476562 127.988281 173.105469 C 132.933594 164.179688 136.140625 154.519531 139.84375 145.054688 C 143.066406 136.8125 146.921875 128.210938 153.6875 122.21875 C 157.261719 119.058594 161.691406 116.832031 166.523438 116.621094 C 170.382812 116.453125 174 117.792969 176.484375 120.652344 C 180.644531 123.382812 182.148438 128.609375 182.941406 133.597656 C 184.386719 142.679688 184.941406 152.703125 185.207031 163.710938 C 187.164062 154.019531 189.898438 144.355469 195.167969 136.027344 C 198.257812 131.148438 202.242188 126.8125 207.011719 123.527344 C 209.464844 121.839844 212.113281 120.449219 214.898438 119.394531 C 217.589844 118.371094 220.542969 117.457031 223.460938 117.628906 C 225.644531 117.753906 227.609375 118.628906 228.648438 120.390625 C 229.167969 120.609375 229.648438 120.894531 230.066406 121.269531 C 231.289062 122.375 231.558594 123.863281 231.691406 125.25 C 232.660156 135.285156 229.957031 145.898438 232.054688 158.09375 C 233.949219 169.109375 239.867188 181.375 249.355469 192.871094 C 254.507812 199.109375 261.324219 205.472656 265.671875 213.296875 C 267.734375 217.011719 268.972656 221.296875 269.621094 225.652344 C 270.394531 230.863281 270.320312 236.15625 269.78125 240.589844 Z M 269.78125 240.589844 " fill-opacity="1" fill-rule="nonzero"/></g><path fill="#fe7eb1" d="M 238.753906 253.183594 C 245.96875 256.125 255.277344 256.503906 261.28125 250.800781 C 264.105469 248.121094 265.742188 244.484375 266.488281 240.710938 C 267.566406 235.277344 267.445312 229.40625 266.648438 223.945312 C 266.390625 222.242188 266.054688 220.554688 265.605469 218.894531 C 263.785156 212.179688 259.773438 206.589844 255.296875 201.363281 C 250.972656 196.3125 246.367188 191.539062 242.464844 186.132812 C 234.855469 175.585938 229.175781 163.320312 228.375 150.214844 C 227.960938 143.386719 228.785156 136.59375 228.910156 129.773438 C 228.941406 128.171875 228.925781 126.570312 228.828125 124.972656 C 228.738281 123.519531 228.707031 121.878906 227.917969 120.597656 C 226.238281 117.886719 222.222656 118.160156 219.539062 118.78125 C 207.921875 121.457031 198.78125 130.136719 193.507812 140.535156 C 187.449219 152.488281 185.382812 166.144531 183.242188 179.222656 C 183.171875 179.667969 182.484375 179.539062 182.476562 179.121094 C 182.449219 176.4375 182.421875 173.753906 182.386719 171.070312 C 182.257812 161.226562 182.070312 151.367188 181.164062 141.5625 C 180.765625 137.269531 180.351562 132.894531 179.347656 128.695312 C 178.453125 124.929688 176.804688 121.03125 173.339844 118.949219 C 169.164062 116.441406 163.632812 117.183594 159.433594 119.242188 C 155.214844 121.3125 151.835938 124.753906 149.117188 128.523438 C 143.925781 135.710938 140.957031 144.203125 137.878906 152.429688 C 134.410156 161.695312 130.691406 170.886719 125.214844 179.191406 C 120.371094 186.535156 114.597656 193.320312 110.851562 201.339844 C 107.050781 209.488281 105.375 220.105469 110.820312 227.960938 C 113.386719 231.667969 117.613281 233.90625 122.152344 233.773438 C 126.714844 233.640625 130.808594 231.195312 134.023438 228.125 C 141.265625 221.210938 144.707031 211.402344 147.039062 201.925781 C 149.398438 192.335938 150.488281 182.535156 151.605469 172.738281 C 151.613281 172.652344 151.648438 172.585938 151.695312 172.527344 C 151.667969 171.988281 151.640625 171.445312 151.613281 170.90625 C 151.5 168.714844 151.339844 166.527344 151.210938 164.335938 C 151.183594 163.835938 151.960938 163.839844 151.992188 164.335938 C 152.117188 166.527344 152.277344 168.714844 152.390625 170.90625 C 152.484375 172.691406 152.574219 174.488281 152.542969 176.277344 C 153.128906 185.234375 155.109375 194.105469 158.691406 202.355469 C 161.859375 209.652344 166.460938 217.542969 173.816406 221.316406 C 177.230469 223.070312 181.183594 223.480469 184.761719 221.941406 C 188.269531 220.429688 190.9375 217.449219 193.050781 214.363281 C 195.328125 211.035156 197.148438 207.386719 198.832031 203.730469 C 200.738281 199.582031 202.402344 195.332031 203.90625 191.023438 C 206.902344 182.421875 209.25 173.601562 211.210938 164.710938 C 211.300781 164.289062 212.023438 164.378906 211.972656 164.816406 C 211.808594 166.214844 211.652344 167.617188 211.503906 169.019531 C 210.261719 180.699219 209.5625 192.460938 209.765625 204.207031 C 209.933594 213.917969 212.515625 223.59375 217.09375 232.15625 C 221.898438 241.148438 229.132812 249.253906 238.753906 253.183594 Z M 248.007812 205.671875 C 255.457031 215.855469 262.40625 227.449219 261.101562 239.664062 C 260.910156 241.464844 260.351562 243.496094 258.601562 244.324219 C 256.628906 245.253906 254.109375 244.046875 252.992188 242.285156 C 251.875 240.523438 251.773438 238.394531 251.621094 236.359375 C 250.472656 221.128906 245.011719 206.410156 237.9375 192.601562 C 235.371094 187.597656 231.449219 180.101562 230.078125 174.710938 Z M 126.230469 191.457031 C 124.589844 193.546875 123.046875 195.722656 121.773438 198.058594 C 120.417969 200.539062 119.550781 203.121094 118.867188 205.851562 C 118.214844 208.46875 118.773438 211.519531 119.148438 214.191406 C 119.601562 217.4375 120.300781 220.835938 119.183594 223.917969 C 118.234375 226.542969 115.664062 227.023438 113.867188 224.800781 C 112.773438 223.441406 112.46875 221.617188 112.386719 219.875 C 112.125 214.402344 113.679688 208.953125 116.144531 204.054688 C 119.71875 196.949219 124.417969 190.570312 130.714844 185.613281 C 129.871094 186.277344 127.050781 190.410156 126.230469 191.457031 Z M 157.027344 136.660156 C 155.742188 137.601562 154.644531 138.886719 153.125 139.367188 C 152.867188 139.449219 152.578125 139.503906 152.328125 139.398438 C 151.859375 139.203125 151.773438 138.578125 151.835938 138.074219 C 152.03125 136.585938 152.9375 135.269531 154.019531 134.222656 C 155.101562 133.175781 156.371094 132.34375 157.546875 131.402344 C 157.894531 131.125 158.273438 130.707031 158.117188 130.289062 C 157.136719 129.867188 155.664062 130.644531 155.09375 129.742188 C 154.703125 129.132812 155.203125 128.347656 155.726562 127.84375 C 159.316406 124.394531 164.601562 124.078125 169.046875 126.03125 C 172.542969 127.566406 174.898438 131.019531 175.972656 134.675781 C 178.109375 141.941406 177.054688 155.589844 174.800781 159.214844 C 173.652344 154.671875 173.757812 149.878906 172.59375 145.339844 C 170.796875 138.324219 164.570312 131.132812 157.027344 136.660156 Z M 200.394531 183.429688 C 200.082031 191.695312 197.695312 199.765625 193.339844 206.796875 C 191.070312 210.460938 187.886719 213.695312 183.886719 215.335938 C 181.382812 216.363281 179.25 216.351562 176.671875 216.066406 C 175.757812 215.964844 174.289062 215.660156 173.757812 214.8125 C 173.714844 214.746094 173.679688 214.671875 173.679688 214.59375 C 173.675781 214.328125 174.035156 214.25 174.304688 214.238281 C 175.570312 214.191406 176.640625 213.632812 177.777344 213.160156 C 179.171875 212.578125 180.476562 211.785156 181.589844 210.765625 C 184.648438 207.960938 185.699219 203.945312 186.71875 200.082031 C 187.320312 197.808594 187.847656 195.4375 188.871094 193.304688 C 190.714844 189.476562 192.910156 189.992188 192.105469 194.566406 C 191.84375 196.066406 191.9375 197.769531 192.03125 199.28125 C 195.570312 194.464844 196.125 188.183594 199.082031 183.082031 C 199.285156 182.730469 199.640625 182.335938 200.019531 182.480469 C 200.359375 182.609375 200.40625 183.066406 200.394531 183.429688 Z M 202.113281 151.410156 C 199.082031 158.027344 194.847656 164.914062 191.582031 171.507812 C 191.585938 171.570312 191.589844 171.632812 191.59375 171.695312 L 191.53125 171.609375 C 191.550781 171.574219 191.566406 171.542969 191.582031 171.507812 C 191.011719 161.789062 194.496094 151.445312 201.539062 141.972656 C 201.933594 141.441406 202.652344 140.792969 203.390625 140.921875 C 203.84375 140.996094 204.019531 141.34375 204.121094 141.660156 C 205.09375 144.699219 203.609375 148.144531 202.113281 151.410156 Z M 202.113281 151.410156 " fill-opacity="1" fill-rule="nonzero"/><path fill="#fefefe" d="M 130.714844 185.613281 C 129.871094 186.277344 127.050781 190.410156 126.230469 191.457031 C 124.589844 193.546875 123.046875 195.722656 121.773438 198.058594 C 120.417969 200.539062 119.550781 203.121094 118.867188 205.851562 C 118.214844 208.46875 118.773438 211.519531 119.148438 214.191406 C 119.601562 217.4375 120.300781 220.835938 119.183594 223.917969 C 118.234375 226.542969 115.664062 227.023438 113.867188 224.800781 C 112.773438 223.441406 112.46875 221.617188 112.386719 219.875 C 112.125 214.402344 113.679688 208.953125 116.144531 204.054688 C 119.71875 196.949219 124.417969 190.570312 130.714844 185.613281 Z M 248.007812 205.671875 L 230.078125 174.710938 C 231.449219 180.101562 235.371094 187.597656 237.9375 192.601562 C 245.011719 206.410156 250.472656 221.128906 251.621094 236.359375 C 251.773438 238.394531 251.875 240.523438 252.992188 242.285156 C 254.109375 244.046875 256.628906 245.253906 258.601562 244.324219 C 260.351562 243.496094 260.910156 241.464844 261.101562 239.664062 C 262.40625 227.449219 255.457031 215.855469 248.007812 205.671875 Z M 191.59375 171.695312 C 191.589844 171.632812 191.585938 171.570312 191.582031 171.507812 C 191.566406 171.542969 191.550781 171.574219 191.53125 171.609375 Z M 203.390625 140.921875 C 202.652344 140.792969 201.933594 141.441406 201.539062 141.972656 C 194.496094 151.445312 191.011719 161.789062 191.582031 171.507812 C 194.847656 164.914062 199.082031 158.027344 202.113281 151.410156 C 203.609375 148.144531 205.09375 144.699219 204.121094 141.660156 C 204.019531 141.34375 203.84375 140.996094 203.390625 140.921875 Z M 203.390625 140.921875 " fill-opacity="1" fill-rule="nonzero"/><path fill="#4befdf" d="M 174.800781 159.214844 C 173.652344 154.671875 173.757812 149.878906 172.59375 145.339844 C 170.796875 138.324219 164.570312 131.132812 157.027344 136.660156 C 155.742188 137.601562 154.644531 138.886719 153.125 139.367188 C 152.867188 139.449219 152.578125 139.503906 152.328125 139.398438 C 151.859375 139.203125 151.773438 138.578125 151.835938 138.074219 C 152.03125 136.585938 152.9375 135.269531 154.019531 134.222656 C 155.101562 133.175781 156.371094 132.34375 157.546875 131.402344 C 157.894531 131.125 158.273438 130.707031 158.117188 130.289062 C 157.136719 129.867188 155.664062 130.644531 155.09375 129.742188 C 154.703125 129.132812 155.203125 128.347656 155.726562 127.84375 C 159.316406 124.394531 164.601562 124.078125 169.046875 126.03125 C 172.542969 127.566406 174.898438 131.019531 175.972656 134.675781 C 178.109375 141.941406 177.054688 155.589844 174.800781 159.214844 Z M 174.800781 159.214844 " fill-opacity="1" fill-rule="nonzero"/><path fill="#f9eb70" d="M 200.394531 183.429688 C 200.082031 191.695312 197.695312 199.765625 193.339844 206.796875 C 191.070312 210.460938 187.886719 213.695312 183.886719 215.335938 C 181.382812 216.363281 179.25 216.351562 176.671875 216.066406 C 175.757812 215.964844 174.289062 215.660156 173.757812 214.8125 C 173.714844 214.746094 173.679688 214.671875 173.679688 214.59375 C 173.675781 214.328125 174.035156 214.25 174.304688 214.238281 C 175.570312 214.191406 176.640625 213.632812 177.777344 213.160156 C 179.171875 212.578125 180.476562 211.785156 181.589844 210.765625 C 184.648438 207.960938 185.699219 203.945312 186.71875 200.082031 C 187.320312 197.808594 187.847656 195.4375 188.871094 193.304688 C 190.714844 189.476562 192.910156 189.992188 192.105469 194.566406 C 191.84375 196.066406 191.9375 197.769531 192.03125 199.28125 C 195.570312 194.464844 196.125 188.183594 199.082031 183.082031 C 199.285156 182.730469 199.640625 182.335938 200.019531 182.480469 C 200.359375 182.609375 200.40625 183.066406 200.394531 183.429688 Z M 200.394531 183.429688 " fill-opacity="1" fill-rule="nonzero"/><g clip-path="url(#id2)"><path fill="#2d353f" d="M 269.621094 225.652344 C 268.972656 221.296875 267.734375 217.011719 265.671875 213.296875 C 261.324219 205.472656 254.507812 199.109375 249.355469 192.871094 C 239.867188 181.375 233.949219 169.109375 232.054688 158.09375 C 229.957031 145.898438 232.660156 135.285156 231.691406 125.25 C 231.558594 123.863281 231.289062 122.375 230.066406 121.269531 C 229.648438 120.894531 229.167969 120.609375 228.648438 120.390625 C 227.609375 118.628906 225.644531 117.753906 223.460938 117.628906 C 220.542969 117.457031 217.589844 118.371094 214.898438 119.394531 C 212.113281 120.449219 209.464844 121.839844 207.011719 123.527344 C 202.242188 126.8125 198.257812 131.148438 195.167969 136.027344 C 189.898438 144.355469 187.164062 154.019531 185.207031 163.710938 C 184.941406 152.703125 184.386719 142.679688 182.941406 133.597656 C 182.148438 128.609375 180.644531 123.382812 176.484375 120.652344 C 174 117.792969 170.382812 116.453125 166.523438 116.621094 C 161.691406 116.832031 157.261719 119.058594 153.6875 122.21875 C 146.921875 128.210938 143.066406 136.8125 139.84375 145.054688 C 136.140625 154.519531 132.933594 164.179688 127.988281 173.105469 C 123.347656 181.476562 116.941406 188.683594 112.226562 197.003906 C 107.660156 205.058594 104.71875 214.808594 107.914062 223.898438 C 109.355469 228.003906 112.136719 231.660156 116.21875 233.417969 C 116.371094 233.484375 116.527344 233.539062 116.679688 233.597656 C 120.34375 236.136719 125.09375 236.742188 129.734375 234.941406 C 135.890625 232.558594 141.082031 226.421875 144.46875 219.714844 C 147.722656 213.273438 149.46875 206.382812 150.941406 199.859375 C 151.742188 196.324219 152.449219 191.796875 153.109375 186.808594 C 153.976562 191.28125 155.214844 195.679688 156.863281 199.9375 C 159.898438 207.765625 164.253906 215.964844 171.40625 220.789062 C 172.410156 221.46875 173.484375 222.054688 174.597656 222.523438 C 177.917969 224.65625 181.582031 225.683594 185.390625 224.800781 C 191.753906 223.328125 196.046875 216.953125 199.261719 210.824219 C 203.308594 203.117188 206.648438 194.265625 209.390625 185.179688 C 209.085938 190.585938 208.929688 196.003906 208.957031 201.417969 C 208.980469 206.410156 209.324219 211.304688 210.398438 216.191406 C 211.5 221.195312 213.199219 226.070312 215.457031 230.671875 C 220.027344 239.984375 227.046875 248.46875 236.550781 253.042969 C 236.621094 253.078125 236.691406 253.109375 236.761719 253.144531 C 240.964844 255.601562 245.417969 257.117188 249.730469 257.421875 C 260.523438 258.183594 268.371094 252.242188 269.78125 240.589844 C 270.320312 236.15625 270.394531 230.863281 269.621094 225.652344 Z M 266.488281 240.710938 C 265.742188 244.484375 264.105469 248.121094 261.28125 250.800781 C 255.277344 256.503906 245.96875 256.125 238.753906 253.183594 C 229.132812 249.253906 221.898438 241.148438 217.09375 232.15625 C 212.515625 223.59375 209.933594 213.917969 209.765625 204.207031 C 209.5625 192.460938 210.261719 180.699219 211.503906 169.019531 C 211.652344 167.617188 211.808594 166.214844 211.972656 164.816406 C 212.023438 164.378906 211.300781 164.289062 211.210938 164.710938 C 209.25 173.601562 206.902344 182.421875 203.90625 191.023438 C 202.402344 195.332031 200.738281 199.582031 198.832031 203.730469 C 197.148438 207.386719 195.328125 211.035156 193.050781 214.363281 C 190.9375 217.449219 188.269531 220.429688 184.761719 221.941406 C 181.183594 223.480469 177.230469 223.070312 173.816406 221.316406 C 166.460938 217.542969 161.859375 209.652344 158.691406 202.355469 C 155.109375 194.105469 153.128906 185.234375 152.542969 176.277344 C 152.574219 174.488281 152.484375 172.691406 152.390625 170.90625 C 152.277344 168.714844 152.117188 166.527344 151.992188 164.335938 C 151.960938 163.839844 151.183594 163.835938 151.210938 164.335938 C 151.339844 166.527344 151.5 168.714844 151.613281 170.90625 C 151.640625 171.445312 151.667969 171.988281 151.695312 172.527344 C 151.648438 172.585938 151.613281 172.652344 151.605469 172.738281 C 150.488281 182.535156 149.398438 192.335938 147.039062 201.925781 C 144.707031 211.402344 141.265625 221.210938 134.023438 228.125 C 130.808594 231.195312 126.714844 233.640625 122.152344 233.773438 C 117.613281 233.90625 113.386719 231.667969 110.820312 227.960938 C 105.375 220.105469 107.050781 209.488281 110.851562 201.339844 C 114.597656 193.320312 120.371094 186.535156 125.214844 179.191406 C 130.691406 170.886719 134.410156 161.695312 137.878906 152.429688 C 140.957031 144.203125 143.925781 135.710938 149.117188 128.523438 C 151.835938 124.753906 155.214844 121.3125 159.433594 119.242188 C 163.632812 117.183594 169.164062 116.441406 173.339844 118.949219 C 176.804688 121.03125 178.453125 124.929688 179.347656 128.695312 C 180.351562 132.894531 180.765625 137.269531 181.164062 141.5625 C 182.070312 151.367188 182.257812 161.226562 182.386719 171.070312 C 182.421875 173.753906 182.449219 176.4375 182.476562 179.121094 C 182.484375 179.539062 183.171875 179.667969 183.242188 179.222656 C 185.382812 166.144531 187.449219 152.488281 193.507812 140.535156 C 198.78125 130.136719 207.921875 121.457031 219.539062 118.78125 C 222.222656 118.160156 226.238281 117.886719 227.917969 120.597656 C 228.707031 121.878906 228.738281 123.519531 228.828125 124.972656 C 228.925781 126.570312 228.941406 128.171875 228.910156 129.773438 C 228.785156 136.59375 227.960938 143.386719 228.375 150.214844 C 229.175781 163.320312 234.855469 175.585938 242.464844 186.132812 C 246.367188 191.539062 250.972656 196.3125 255.296875 201.363281 C 259.773438 206.589844 263.785156 212.179688 265.605469 218.894531 C 266.054688 220.554688 266.390625 222.242188 266.648438 223.945312 C 267.445312 229.40625 267.566406 235.277344 266.488281 240.710938 Z M 266.488281 240.710938 " fill-opacity="1" fill-rule="nonzero"/></g><g clip-path="url(#id3)"><path fill="#f9eb70" d="M 187.476562 306.265625 C 127.1875 306.265625 78.351562 257.09375 78.351562 197.140625 C 78.351562 137.1875 127.1875 88.015625 187.476562 88.015625 C 247.765625 88.015625 296.601562 136.851562 296.601562 197.140625 C 296.601562 257.429688 247.425781 306.265625 187.476562 306.265625 Z M 187.476562 94.75 C 130.890625 94.75 85.085938 140.558594 85.085938 197.140625 C 85.085938 253.722656 130.890625 299.53125 187.476562 299.53125 C 244.058594 299.53125 289.863281 253.722656 289.863281 197.140625 C 289.863281 140.558594 243.722656 94.75 187.476562 94.75 Z M 187.476562 94.75 " fill-opacity="1" fill-rule="nonzero"/></g></svg>